<svg version="1.1" id="Layer_1" xmlns="http://www.w3.org/2000/svg" xmlns:xlink="http://www.w3.org/1999/xlink" x="0px" y="0px"
	 width="100%" viewBox="0 0 512 512" enable-background="new 0 0 512 512" xml:space="preserve">
<path fill="#FFFFFF" opacity="1.000000" stroke="none" 
	d="
M252.000000,513.000000 
	C168.369659,513.000000 84.739319,513.000000 1.054487,513.000000 
	C1.054487,342.443756 1.054487,171.887512 1.054487,1.000000 
	C79.688370,1.000000 158.377213,1.000000 237.363968,1.383694 
	C231.520416,2.627107 225.279404,3.050914 219.255768,4.426625 
	C199.595093,8.916824 181.056839,16.188622 163.669098,26.614588 
	C146.028778,37.192009 130.672485,50.391499 117.653671,66.093063 
	C106.991524,78.952339 98.405128,93.285347 91.632675,108.694489 
	C83.723152,126.690758 78.503662,145.493607 77.314278,164.939178 
	C76.402222,179.850769 77.636642,195.007126 79.166695,209.926376 
	C81.152222,229.286957 87.910782,247.450027 97.072769,264.494415 
	C104.424179,278.170502 112.951042,291.217133 121.018265,304.505463 
	C132.364456,323.194885 143.765839,341.850800 155.147537,360.518677 
	C167.714523,381.130615 180.265427,401.752380 192.860825,422.346924 
	C207.146698,445.705536 221.336868,469.124634 235.863373,492.332947 
	C240.494720,499.732208 243.404633,508.636658 252.000000,513.000000 
z"/>
<path fill="#FFFFFF" opacity="1.000000" stroke="none" 
	d="
M275.000000,0.999997 
	C354.298889,1.000000 433.597778,1.000000 512.948364,1.000000 
	C512.948364,171.558105 512.948364,342.116241 512.948364,513.000000 
	C429.978271,513.000000 346.956116,513.000000 263.569336,512.660889 
	C265.422272,510.704010 268.249664,509.512848 269.737915,507.385040 
	C273.528198,501.966125 276.720673,496.129028 280.151520,490.458771 
	C292.976257,469.263123 305.754944,448.039490 318.638000,426.879395 
	C331.353241,405.994843 344.198395,385.189484 356.940521,364.321259 
	C367.232208,347.466278 377.636627,330.676270 387.660828,313.662933 
	C398.981598,294.449005 410.299164,275.216461 420.947174,255.627319 
	C432.633118,234.128586 435.684753,210.335236 436.816895,186.372147 
	C437.263916,176.909943 435.126434,167.350021 435.148407,157.836853 
	C435.173004,147.205872 431.725311,137.469971 429.110046,127.474174 
	C425.356079,113.126236 418.328979,100.265991 411.120605,87.465057 
	C401.064972,69.607864 387.356110,54.765236 371.907806,41.688408 
	C358.779144,30.575138 344.015869,21.588820 328.002319,15.083165 
	C312.817780,8.914296 297.410675,3.320552 280.679962,2.915453 
	C278.772308,2.869264 276.892639,1.666485 275.000000,0.999997 
z"/>
<path fill="#E50027" opacity="1.000000" stroke="none" 
	d="
M274.532043,0.999997 
	C276.892639,1.666485 278.772308,2.869264 280.679962,2.915453 
	C297.410675,3.320552 312.817780,8.914296 328.002319,15.083165 
	C344.015869,21.588820 358.779144,30.575138 371.907806,41.688408 
	C387.356110,54.765236 401.064972,69.607864 411.120605,87.465057 
	C418.328979,100.265991 425.356079,113.126236 429.110046,127.474174 
	C431.725311,137.469971 435.173004,147.205872 435.148407,157.836853 
	C435.126434,167.350021 437.263916,176.909943 436.816895,186.372147 
	C435.684753,210.335236 432.633118,234.128586 420.947174,255.627319 
	C410.299164,275.216461 398.981598,294.449005 387.660828,313.662933 
	C377.636627,330.676270 367.232208,347.466278 356.940521,364.321259 
	C344.198395,385.189484 331.353241,405.994843 318.638000,426.879395 
	C305.754944,448.039490 292.976257,469.263123 280.151520,490.458771 
	C276.720673,496.129028 273.528198,501.966125 269.737915,507.385040 
	C268.249664,509.512848 265.422272,510.704010 263.102356,512.660889 
	C261.285645,513.000000 259.571289,513.000000 257.428497,512.531372 
	C257.000061,433.690796 256.991608,355.318909 257.042206,276.947052 
	C257.043671,274.686646 257.670868,272.426605 258.463318,270.092560 
	C278.427917,270.438873 295.642181,263.752991 311.025726,252.346451 
	C324.843506,242.100906 334.778870,228.605820 340.774902,212.461151 
	C346.543213,196.929642 347.677521,180.771698 344.844696,164.563309 
	C343.124054,154.718445 339.598694,145.348969 334.362061,136.593155 
	C328.672852,127.080559 321.826599,118.650414 313.191956,111.843216 
	C307.747589,107.551094 301.928558,103.475914 295.711456,100.477173 
	C283.575928,94.623810 270.632599,91.467079 257.004181,91.375351 
	C257.001343,60.944752 257.000671,30.972376 257.000000,1.000000 
	C262.688049,1.000000 268.376068,1.000000 274.532043,0.999997 
z"/>
<path fill="#FD003A" opacity="1.000000" stroke="none" 
	d="
M256.531738,1.000000 
	C257.000671,30.972376 257.001343,60.944752 256.546387,91.448578 
	C249.590637,92.656021 242.927811,92.641365 236.618698,94.127922 
	C209.714966,100.467033 189.969498,116.645058 177.248138,140.749420 
	C167.249527,159.694702 165.218857,180.273621 170.058807,201.202438 
	C176.295792,228.172363 192.256653,247.910721 216.541534,260.753387 
	C229.396820,267.551697 243.345398,270.725342 258.006317,270.166412 
	C257.670868,272.426605 257.043671,274.686646 257.042206,276.947052 
	C256.991608,355.318909 257.000061,433.690796 257.000031,512.531372 
	C255.611115,513.000000 254.222214,513.000000 252.416656,513.000000 
	C243.404633,508.636658 240.494720,499.732208 235.863373,492.332947 
	C221.336868,469.124634 207.146698,445.705536 192.860825,422.346924 
	C180.265427,401.752380 167.714523,381.130615 155.147537,360.518677 
	C143.765839,341.850800 132.364456,323.194885 121.018265,304.505463 
	C112.951042,291.217133 104.424179,278.170502 97.072769,264.494415 
	C87.910782,247.450027 81.152222,229.286957 79.166695,209.926376 
	C77.636642,195.007126 76.402222,179.850769 77.314278,164.939178 
	C78.503662,145.493607 83.723152,126.690758 91.632675,108.694489 
	C98.405128,93.285347 106.991524,78.952339 117.653671,66.093063 
	C130.672485,50.391499 146.028778,37.192009 163.669098,26.614588 
	C181.056839,16.188622 199.595093,8.916824 219.255768,4.426625 
	C225.279404,3.050914 231.520416,2.627107 237.830948,1.383694 
	C244.021149,1.000000 250.042297,1.000000 256.531738,1.000000 
z"/>
<path fill="#FFFFFF" opacity="1.000000" stroke="none" 
	d="
M258.463318,270.092560 
	C243.345398,270.725342 229.396820,267.551697 216.541534,260.753387 
	C192.256653,247.910721 176.295792,228.172363 170.058807,201.202438 
	C165.218857,180.273621 167.249527,159.694702 177.248138,140.749420 
	C189.969498,116.645058 209.714966,100.467033 236.618698,94.127922 
	C242.927811,92.641365 249.590637,92.656021 256.548523,91.906792 
	C270.632599,91.467079 283.575928,94.623810 295.711456,100.477173 
	C301.928558,103.475914 307.747589,107.551094 313.191956,111.843216 
	C321.826599,118.650414 328.672852,127.080559 334.362061,136.593155 
	C339.598694,145.348969 343.124054,154.718445 344.844696,164.563309 
	C347.677521,180.771698 346.543213,196.929642 340.774902,212.461151 
	C334.778870,228.605820 324.843506,242.100906 311.025726,252.346451 
	C295.642181,263.752991 278.427917,270.438873 258.463318,270.092560 
z"/>
</svg>